<svg width="147" height="50" viewBox="0 0 147 50" fill="none" xmlns="http://www.w3.org/2000/svg">
<rect width="147" height="50" fill="#1378FC"/>
<path d="M17.9099 39V19.576H11.3499V15.224H29.7179V19.576H23.1579V39H17.9099ZM70.1599 39V19.576H63.5999V15.224H81.9679V19.576H75.4079V39H70.1599ZM117.77 39V15.224H125.834C127.583 15.224 129.162 15.4587 130.57 15.928C131.999 16.3973 133.13 17.1867 133.962 18.296C134.815 19.4053 135.242 20.92 135.242 22.84C135.242 24.6747 134.815 26.1893 133.962 27.384C133.13 28.5573 132.01 29.432 130.602 30.008C129.194 30.5627 127.647 30.84 125.962 30.84H122.986V39H117.77ZM122.986 26.712H125.674C127.167 26.712 128.287 26.3813 129.034 25.72C129.781 25.0587 130.154 24.0987 130.154 22.84C130.154 21.56 129.759 20.664 128.97 20.152C128.181 19.64 127.029 19.384 125.514 19.384H122.986V26.712Z" fill="white"/>
</svg>
